0
SECTION
2
HEADER
9
$INSUNITS
70
4
9
$ACADVER
1
AC1014
9
$HANDSEED
5
FFFF
0
ENDSEC
0
SECTION
2
TABLES
0
TABLE
2
VPORT
5
8
100
AcDbSymbolTable
0
ENDTAB
0
TABLE
2
LTYPE
5
5
100
AcDbSymbolTable
0
LTYPE
5
14
100
AcDbSymbolTableRecord
100
AcDbLinetypeTableRecord
2
BYBLOCK
70
0
0
LTYPE
5
15
100
AcDbSymbolTableRecord
100
AcDbLinetypeTableRecord
2
BYLAYER
70
0
0
ENDTAB
0
TABLE
2
LAYER
5
2
100
AcDbSymbolTable
70
2
0
LAYER
5
50
100
AcDbSymbolTableRecord
100
AcDbLayerTableRecord
2
0
70
0
6
CONTINUOUS
0
ENDTAB
0
TABLE
2
STYLE
5
3
100
AcDbSymbolTable
70
1
0
STYLE
5
11
100
AcDbSymbolTableRecord
100
AcDbTextStyleTableRecord
2
STANDARD
70
0
0
ENDTAB
0
TABLE
2
VIEW
5
6
100
AcDbSymbolTable
70
0
0
ENDTAB
0
TABLE
2
UCS
5
7
100
AcDbSymbolTable
70
0
0
ENDTAB
0
TABLE
2
APPID
5
9
100
AcDbSymbolTable
70
2
0
APPID
5
12
100
AcDbSymbolTableRecord
100
AcDbRegAppTableRecord
2
ACAD
70
0
0
ENDTAB
0
TABLE
2
DIMSTYLE
5
A
100
AcDbSymbolTable
70
1
0
ENDTAB
0
TABLE
2
BLOCK_RECORD
5
1
100
AcDbSymbolTable
70
1
0
BLOCK_RECORD
5
1F
100
AcDbSymbolTableRecord
100
AcDbBlockTableRecord
2
*MODEL_SPACE
0
BLOCK_RECORD
5
1B
100
AcDbSymbolTableRecord
100
AcDbBlockTableRecord
2
*PAPER_SPACE
0
ENDTAB
0
ENDSEC
0
SECTION
2
BLOCKS
0
BLOCK
5
20
100
AcDbEntity
100
AcDbBlockBegin
2
*MODEL_SPACE
0
ENDBLK
5
21
100
AcDbEntity
100
AcDbBlockEnd
0
BLOCK
5
1C
100
AcDbEntity
100
AcDbBlockBegin
2
*PAPER_SPACE
0
ENDBLK
5
1D
100
AcDbEntity
100
AcDbBlockEnd
0
ENDSEC
0
SECTION
2
ENTITIES
0
LWPOLYLINE
5
100
100
AcDbEntity
8
0
100
AcDbPolyline
90
4
70
1
43
0.0
10
117.06260888534894
20
26.500000000010271
42
0.041739256898601904
10
117.06260888534894
20
23.500000000010285
10
152.93739111465317
20
23.500000000010278
42
0.04173925689860207
10
152.93739111465317
20
26.500000000010274
0
LWPOLYLINE
5
101
100
AcDbEntity
8
0
100
AcDbPolyline
90
2
70
1
43
0.0
10
142.19374728497013
20
41.500000000010289
42
0.20851441405707449
10
127.80625271503197
20
41.500000000010289
0
LWPOLYLINE
5
102
100
AcDbEntity
8
0
100
AcDbPolyline
90
4
70
1
43
0.0
10
117.57157494206767
20
20.500000000010278
10
152.42842505793442
20
20.500000000010278
42
-0.044302744777307494
10
151.36306817195464
20
17.500000000010274
10
118.63693182804749
20
17.500000000010274
42
-0.044302744777307494
0
LWPOLYLINE
5
103
100
AcDbEntity
8
0
100
AcDbPolyline
90
4
70
1
43
0.0
10
120.37980848278758
20
14.500000000010278
10
149.62019151721452
20
14.500000000010278
42
-0.056368461613806355
10
146.9058808997917
20
11.500000000010271
10
123.09411910021039
20
11.500000000010267
42
-0.056368461613806355
0
LWPOLYLINE
5
104
100
AcDbEntity
8
0
100
AcDbPolyline
90
4
70
1
43
0.0
10
123.09411910021039
20
38.500000000010274
10
146.9058808997917
20
38.500000000010274
42
-0.056368461613806355
10
149.62019151721452
20
35.500000000010267
10
120.37980848278758
20
35.50000000001026
42
-0.056368461613806466
0
LWPOLYLINE
5
105
100
AcDbEntity
8
0
100
AcDbPolyline
90
4
70
1
43
0.0
10
152.42842505793442
20
29.500000000010278
10
117.57157494206767
20
29.500000000010274
42
-0.044302744777307494
10
118.63693182804747
20
32.500000000010274
10
151.36306817195461
20
32.500000000010282
42
-0.044302744777307494
0
LWPOLYLINE
5
106
100
AcDbEntity
8
0
100
AcDbPolyline
90
2
70
1
43
0.0
10
127.80625271503196
20
8.5000000000102744
10
142.19374728497016
20
8.5000000000102744
42
-0.20851441405707505
0
ARC
5
107
100
AcDbEntity
8
0
100
AcDbCircle
10
181.80000000000001
20
48.365121796328779
30
0
40
0.19999999999999574
210
0
220
0
230
1
100
AcDbArc
50
0
51
90
0
LINE
5
108
100
AcDbEntity
8
0
100
AcDbLine
10
181.80000000000001
20
48.565121796328782
30
0
11
106.20000000000002
21
48.565121796328782
31
4.4408920985006262e-15
0
ARC
5
109
100
AcDbEntity
8
0
100
AcDbCircle
10
106.20000000000002
20
48.365121796328779
30
0
40
0.19999999999999574
210
0
220
-2.2204460492503604e-14
230
1
100
AcDbArc
50
90
51
180
0
LINE
5
110
100
AcDbEntity
8
0
100
AcDbLine
10
106.00000000000001
20
48.365121796328779
30
0
11
106.00000000000001
21
1.6999999999999993
31
0
0
ARC
5
111
100
AcDbEntity
8
0
100
AcDbCircle
10
106.20000000000002
20
1.6999999999999948
30
0
40
0.19999999999999574
210
0
220
0
230
1
100
AcDbArc
50
180
51
270
0
LINE
5
112
100
AcDbEntity
8
0
100
AcDbLine
10
106.20000000000002
20
1.4999999999999947
30
0
11
181.80000000000001
21
1.4999999999999964
31
-3.7252902984619141e-07
0
ARC
5
113
100
AcDbEntity
8
0
100
AcDbCircle
10
181.80000000000001
20
1.6999999999970474
30
-3.1664967536871251e-06
40
0.20000000000034712
210
0
220
-1.8626451492277243e-06
230
0.99999999999826528
100
AcDbArc
50
-90
51
0
0
LINE
5
114
100
AcDbEntity
8
0
100
AcDbLine
10
182
20
1.6999999999999971
30
0
11
182
21
48.365121796328779
31
0
0
CIRCLE
5
115
100
AcDbEntity
8
0
100
AcDbCircle
10
174.5
20
9
30
0
40
1.7500000000000071
210
0
220
-0
230
1
0
CIRCLE
5
116
100
AcDbEntity
8
0
100
AcDbCircle
10
174.5
20
41.029588262925031
30
0
40
1.7500000000000071
210
0
220
-0
230
1
0
CIRCLE
5
117
100
AcDbEntity
8
0
100
AcDbCircle
10
151.00000000000108
20
9.0000000000103526
30
1.2878587085651816e-12
40
1.7249999999999943
210
2.8776980798284063e-14
220
4.335791304181732e-43
230
1
0
CIRCLE
5
118
100
AcDbEntity
8
0
100
AcDbCircle
10
151.00000000000099
20
41.00000000001031
30
-1.7674750552032492e-12
40
1.7249999999999943
210
2.8776980798284063e-14
220
4.3350464264653552e-43
230
1
0
CIRCLE
5
119
100
AcDbEntity
8
0
100
AcDbCircle
10
119.00000000000112
20
9.0000000000102425
30
2.2071233729548112e-12
40
1.7249999999999943
210
2.8776980798284063e-14
220
4.335791304181732e-43
230
1
0
CIRCLE
5
120
100
AcDbEntity
8
0
100
AcDbCircle
10
119.00000000000102
20
41.000000000010203
30
-8.4376949871511897e-13
40
1.7249999999999943
210
2.8776980798284063e-14
220
4.3350464264653552e-43
230
1
0
ENDSEC
0
SECTION
2
OBJECTS
0
DICTIONARY
5
C
100
AcDbDictionary
3
ACAD_GROUP
350
D
3
ACAD_MLINESTYLE
350
17
0
DICTIONARY
5
D
100
AcDbDictionary
0
DICTIONARY
5
1A
330
C
100
AcDbDictionary
0
DICTIONARY
5
17
100
AcDbDictionary
0
ENDSEC
0
EOF
