#define iconProgressSmall_width 8
#define iconProgressSmall_height 8
static unsigned char iconProgressSmall_bits[] = {
   0x00, 0x40, 0x20, 0x1c, 0x02, 0x01, 0x00, 0xff };
