#define iconOscilateMed_width 12
#define iconOscilateMed_height 12
static unsigned char iconOscilateMed_bits[] = {
   0x00, 0x00, 0x54, 0x07, 0xff, 0x07, 0x00, 0x02, 0x00, 0x00, 0x00, 0x00,
   0x00, 0x00, 0x56, 0x05, 0xfe, 0x0f, 0x04, 0x00, 0x00, 0x00, 0x00, 0x00 };
