#define iconClockSmall_width 12
#define iconClockSmall_height 12
static unsigned char iconClockSmall_bits[] = {
   0xf0, 0x00, 0x0c, 0x03, 0x62, 0x04, 0x62, 0x04, 0x61, 0x08, 0x61, 0x08,
   0xe1, 0x08, 0xc1, 0x09, 0x82, 0x05, 0x02, 0x04, 0x0c, 0x03, 0xf0, 0x00 };
