#define iconOscilateSmall_width 8
#define iconOscilateSmall_height 8
static unsigned char iconOscilateSmall_bits[] = {
   0x40, 0xff, 0x40, 0x00, 0x02, 0xff, 0x02, 0x00 };
