#define iconFilmSmall_width 12
#define iconFilmSmall_height 12
static unsigned char iconFilmSmall_bits[] = {
   0x80, 0x03, 0xe0, 0x0f, 0x3f, 0x08, 0x21, 0x08, 0x21, 0x08, 0x21, 0x08,
   0x21, 0x08, 0x27, 0x08, 0x2c, 0x08, 0x28, 0x08, 0x38, 0x08, 0xe0, 0x0f };
