#define iconProgressMed_width 12
#define iconProgressMed_height 12
static unsigned char iconProgressMed_bits[] = {
   0x00, 0x04, 0x00, 0x0e, 0x00, 0x07, 0x80, 0x03, 0xf8, 0x01, 0xfc, 0x00,
   0x6e, 0x00, 0x07, 0x00, 0x02, 0x00, 0x00, 0x00, 0xaa, 0x0a, 0xff, 0x0f };
