#define iconContinuousMed_width 12
#define iconContinuousMed_height 12
static unsigned char iconContinuousMed_bits[] = {
   0xf0, 0x00, 0xdc, 0x0f, 0x06, 0x0e, 0x02, 0x0f, 0x03, 0x0a, 0x01, 0x00,
   0x03, 0x00, 0x03, 0x00, 0x02, 0x00, 0x06, 0x00, 0xdc, 0x03, 0xf0, 0x00 };
